<mxfile host="app.diagrams.net" modified="2022-04-19T03:39:25.025Z" agent="5.0 (Windows NT 10.0; Win64; x64) AppleWebKit/537.36 (KHTML, like Gecko) Chrome/100.0.4896.75 Safari/537.36" etag="xuHnotQbCoDy8mBowrgJ" version="17.4.5" type="github" pages="3">
  <diagram id="V7DGzK6TTjDBdNX_tZ4m" name="(b) 小題">
    <mxGraphModel dx="1422" dy="794" grid="1" gridSize="10" guides="1" tooltips="1" connect="1" arrows="1" fold="1" page="1" pageScale="1" pageWidth="827" pageHeight="1169" math="0" shadow="0">
      <root>
        <mxCell id="0" />
        <mxCell id="1" parent="0" />
        <mxCell id="UZiSnXxRIDqqfNMUyTI3-9" value="客戶" style="shape=umlActor;verticalLabelPosition=bottom;verticalAlign=top;html=1;" vertex="1" parent="1">
          <mxGeometry x="110" y="180" width="30" height="60" as="geometry" />
        </mxCell>
        <mxCell id="UZiSnXxRIDqqfNMUyTI3-10" value="瀏覽者" style="shape=umlActor;verticalLabelPosition=bottom;verticalAlign=top;html=1;" vertex="1" parent="1">
          <mxGeometry x="110" y="90" width="30" height="60" as="geometry" />
        </mxCell>
        <mxCell id="UZiSnXxRIDqqfNMUyTI3-12" value="完成註冊客戶" style="shape=umlActor;verticalLabelPosition=bottom;verticalAlign=top;html=1;" vertex="1" parent="1">
          <mxGeometry x="110" y="300" width="30" height="60" as="geometry" />
        </mxCell>
        <mxCell id="UZiSnXxRIDqqfNMUyTI3-14" value="公司人員" style="shape=umlActor;verticalLabelPosition=bottom;verticalAlign=top;html=1;" vertex="1" parent="1">
          <mxGeometry x="550" y="70" width="30" height="60" as="geometry" />
        </mxCell>
        <mxCell id="UZiSnXxRIDqqfNMUyTI3-15" value="系統維護人員" style="shape=umlActor;verticalLabelPosition=bottom;verticalAlign=top;html=1;" vertex="1" parent="1">
          <mxGeometry x="550" y="170" width="30" height="60" as="geometry" />
        </mxCell>
        <mxCell id="UZiSnXxRIDqqfNMUyTI3-16" value="前台" style="html=1;" vertex="1" parent="1">
          <mxGeometry x="230" y="20" width="290" height="480" as="geometry" />
        </mxCell>
        <mxCell id="UZiSnXxRIDqqfNMUyTI3-21" value="" style="edgeStyle=orthogonalEdgeStyle;rounded=0;orthogonalLoop=1;jettySize=auto;html=1;" edge="1" parent="1" source="UZiSnXxRIDqqfNMUyTI3-17" target="UZiSnXxRIDqqfNMUyTI3-20">
          <mxGeometry relative="1" as="geometry" />
        </mxCell>
        <mxCell id="UZiSnXxRIDqqfNMUyTI3-17" value="註冊" style="ellipse;whiteSpace=wrap;html=1;" vertex="1" parent="1">
          <mxGeometry x="270" y="40" width="105" height="40" as="geometry" />
        </mxCell>
        <mxCell id="UZiSnXxRIDqqfNMUyTI3-20" value="登入" style="ellipse;whiteSpace=wrap;html=1;" vertex="1" parent="1">
          <mxGeometry x="400" y="40" width="105" height="40" as="geometry" />
        </mxCell>
        <mxCell id="UZiSnXxRIDqqfNMUyTI3-24" value="" style="endArrow=none;html=1;rounded=0;" edge="1" parent="1" source="UZiSnXxRIDqqfNMUyTI3-20" target="UZiSnXxRIDqqfNMUyTI3-14">
          <mxGeometry width="50" height="50" relative="1" as="geometry">
            <mxPoint x="390" y="430" as="sourcePoint" />
            <mxPoint x="440" y="380" as="targetPoint" />
            <Array as="points">
              <mxPoint x="510" y="60" />
            </Array>
          </mxGeometry>
        </mxCell>
        <mxCell id="UZiSnXxRIDqqfNMUyTI3-25" value="" style="endArrow=none;html=1;rounded=0;entryX=0.314;entryY=1.025;entryDx=0;entryDy=0;entryPerimeter=0;" edge="1" parent="1" source="UZiSnXxRIDqqfNMUyTI3-10" target="UZiSnXxRIDqqfNMUyTI3-17">
          <mxGeometry width="50" height="50" relative="1" as="geometry">
            <mxPoint x="160" y="150" as="sourcePoint" />
            <mxPoint x="210" y="100" as="targetPoint" />
          </mxGeometry>
        </mxCell>
        <mxCell id="UZiSnXxRIDqqfNMUyTI3-27" value="" style="endArrow=none;html=1;rounded=0;entryX=0.5;entryY=0.5;entryDx=0;entryDy=0;entryPerimeter=0;" edge="1" parent="1" source="UZiSnXxRIDqqfNMUyTI3-17" target="UZiSnXxRIDqqfNMUyTI3-14">
          <mxGeometry width="50" height="50" relative="1" as="geometry">
            <mxPoint x="690" y="120" as="sourcePoint" />
            <mxPoint x="480" y="110" as="targetPoint" />
          </mxGeometry>
        </mxCell>
        <mxCell id="UZiSnXxRIDqqfNMUyTI3-28" value="" style="endArrow=none;html=1;rounded=0;entryX=0.5;entryY=1;entryDx=0;entryDy=0;" edge="1" parent="1" source="UZiSnXxRIDqqfNMUyTI3-9" target="UZiSnXxRIDqqfNMUyTI3-17">
          <mxGeometry width="50" height="50" relative="1" as="geometry">
            <mxPoint x="150" y="240" as="sourcePoint" />
            <mxPoint x="200" y="190" as="targetPoint" />
          </mxGeometry>
        </mxCell>
        <mxCell id="UZiSnXxRIDqqfNMUyTI3-29" value="" style="endArrow=none;html=1;rounded=0;entryX=0.4;entryY=1.025;entryDx=0;entryDy=0;entryPerimeter=0;" edge="1" parent="1" source="UZiSnXxRIDqqfNMUyTI3-12" target="UZiSnXxRIDqqfNMUyTI3-20">
          <mxGeometry width="50" height="50" relative="1" as="geometry">
            <mxPoint x="140" y="320" as="sourcePoint" />
            <mxPoint x="190" y="270" as="targetPoint" />
          </mxGeometry>
        </mxCell>
        <mxCell id="UZiSnXxRIDqqfNMUyTI3-30" value="查看商品" style="ellipse;whiteSpace=wrap;html=1;" vertex="1" parent="1">
          <mxGeometry x="327.5" y="170" width="95" height="40" as="geometry" />
        </mxCell>
        <mxCell id="UZiSnXxRIDqqfNMUyTI3-31" value="" style="endArrow=none;html=1;rounded=0;" edge="1" parent="1" source="UZiSnXxRIDqqfNMUyTI3-10" target="UZiSnXxRIDqqfNMUyTI3-30">
          <mxGeometry width="50" height="50" relative="1" as="geometry">
            <mxPoint x="140" y="170" as="sourcePoint" />
            <mxPoint x="210.71067811865476" y="120" as="targetPoint" />
          </mxGeometry>
        </mxCell>
        <mxCell id="UZiSnXxRIDqqfNMUyTI3-32" value="" style="endArrow=none;html=1;rounded=0;exitX=1;exitY=0.3333333333333333;exitDx=0;exitDy=0;exitPerimeter=0;" edge="1" parent="1" source="UZiSnXxRIDqqfNMUyTI3-9" target="UZiSnXxRIDqqfNMUyTI3-30">
          <mxGeometry width="50" height="50" relative="1" as="geometry">
            <mxPoint x="280" y="260" as="sourcePoint" />
            <mxPoint x="330" y="210" as="targetPoint" />
          </mxGeometry>
        </mxCell>
        <mxCell id="UZiSnXxRIDqqfNMUyTI3-33" value="" style="endArrow=none;html=1;rounded=0;exitX=1;exitY=0.3333333333333333;exitDx=0;exitDy=0;exitPerimeter=0;entryX=0;entryY=1;entryDx=0;entryDy=0;" edge="1" parent="1" source="UZiSnXxRIDqqfNMUyTI3-12" target="UZiSnXxRIDqqfNMUyTI3-30">
          <mxGeometry width="50" height="50" relative="1" as="geometry">
            <mxPoint x="390" y="230" as="sourcePoint" />
            <mxPoint x="440" y="180" as="targetPoint" />
          </mxGeometry>
        </mxCell>
        <mxCell id="UZiSnXxRIDqqfNMUyTI3-34" value="" style="endArrow=none;html=1;rounded=0;entryX=0;entryY=0.3333333333333333;entryDx=0;entryDy=0;entryPerimeter=0;exitX=1;exitY=0;exitDx=0;exitDy=0;" edge="1" parent="1" source="UZiSnXxRIDqqfNMUyTI3-30" target="UZiSnXxRIDqqfNMUyTI3-14">
          <mxGeometry width="50" height="50" relative="1" as="geometry">
            <mxPoint x="460" y="160" as="sourcePoint" />
            <mxPoint x="510" y="110" as="targetPoint" />
          </mxGeometry>
        </mxCell>
        <mxCell id="UZiSnXxRIDqqfNMUyTI3-35" value="" style="endArrow=none;html=1;rounded=0;entryX=0;entryY=0.3333333333333333;entryDx=0;entryDy=0;entryPerimeter=0;exitX=1;exitY=0.5;exitDx=0;exitDy=0;" edge="1" parent="1" source="UZiSnXxRIDqqfNMUyTI3-30" target="UZiSnXxRIDqqfNMUyTI3-15">
          <mxGeometry width="50" height="50" relative="1" as="geometry">
            <mxPoint x="390" y="330" as="sourcePoint" />
            <mxPoint x="440" y="280" as="targetPoint" />
          </mxGeometry>
        </mxCell>
        <mxCell id="UZiSnXxRIDqqfNMUyTI3-36" value="" style="endArrow=none;html=1;rounded=0;entryX=0;entryY=0.3333333333333333;entryDx=0;entryDy=0;entryPerimeter=0;" edge="1" parent="1" target="UZiSnXxRIDqqfNMUyTI3-15">
          <mxGeometry width="50" height="50" relative="1" as="geometry">
            <mxPoint x="450" y="80" as="sourcePoint" />
            <mxPoint x="440" y="280" as="targetPoint" />
          </mxGeometry>
        </mxCell>
        <mxCell id="UZiSnXxRIDqqfNMUyTI3-39" value="" style="edgeStyle=orthogonalEdgeStyle;rounded=0;orthogonalLoop=1;jettySize=auto;html=1;" edge="1" parent="1" source="UZiSnXxRIDqqfNMUyTI3-37" target="UZiSnXxRIDqqfNMUyTI3-38">
          <mxGeometry relative="1" as="geometry" />
        </mxCell>
        <mxCell id="UZiSnXxRIDqqfNMUyTI3-37" value="購買商品" style="ellipse;whiteSpace=wrap;html=1;" vertex="1" parent="1">
          <mxGeometry x="260" y="290" width="100" height="40" as="geometry" />
        </mxCell>
        <mxCell id="UZiSnXxRIDqqfNMUyTI3-38" value="結帳" style="ellipse;whiteSpace=wrap;html=1;" vertex="1" parent="1">
          <mxGeometry x="405" y="290" width="100" height="40" as="geometry" />
        </mxCell>
        <mxCell id="UZiSnXxRIDqqfNMUyTI3-40" value="" style="endArrow=none;html=1;rounded=0;exitX=1;exitY=0.3333333333333333;exitDx=0;exitDy=0;exitPerimeter=0;entryX=0;entryY=0.5;entryDx=0;entryDy=0;" edge="1" parent="1" source="UZiSnXxRIDqqfNMUyTI3-12" target="UZiSnXxRIDqqfNMUyTI3-37">
          <mxGeometry width="50" height="50" relative="1" as="geometry">
            <mxPoint x="320" y="420" as="sourcePoint" />
            <mxPoint x="370" y="370" as="targetPoint" />
          </mxGeometry>
        </mxCell>
        <mxCell id="UZiSnXxRIDqqfNMUyTI3-41" value="白公主銀行" style="shape=umlActor;verticalLabelPosition=bottom;verticalAlign=top;html=1;" vertex="1" parent="1">
          <mxGeometry x="550" y="370" width="30" height="60" as="geometry" />
        </mxCell>
        <mxCell id="UZiSnXxRIDqqfNMUyTI3-42" value="提供金融交易" style="ellipse;whiteSpace=wrap;html=1;" vertex="1" parent="1">
          <mxGeometry x="325" y="330" width="100" height="40" as="geometry" />
        </mxCell>
        <mxCell id="UZiSnXxRIDqqfNMUyTI3-43" value="" style="endArrow=none;html=1;rounded=0;entryX=0;entryY=0.3333333333333333;entryDx=0;entryDy=0;entryPerimeter=0;exitX=1;exitY=0.5;exitDx=0;exitDy=0;" edge="1" parent="1" source="UZiSnXxRIDqqfNMUyTI3-42" target="UZiSnXxRIDqqfNMUyTI3-41">
          <mxGeometry width="50" height="50" relative="1" as="geometry">
            <mxPoint x="390" y="330" as="sourcePoint" />
            <mxPoint x="440" y="280" as="targetPoint" />
          </mxGeometry>
        </mxCell>
        <mxCell id="UZiSnXxRIDqqfNMUyTI3-44" value="查看過往訂單" style="ellipse;whiteSpace=wrap;html=1;" vertex="1" parent="1">
          <mxGeometry x="325" y="380" width="95" height="40" as="geometry" />
        </mxCell>
        <mxCell id="UZiSnXxRIDqqfNMUyTI3-45" value="" style="endArrow=none;html=1;rounded=0;entryX=1;entryY=0.5;entryDx=0;entryDy=0;exitX=0;exitY=0.3333333333333333;exitDx=0;exitDy=0;exitPerimeter=0;" edge="1" parent="1" source="UZiSnXxRIDqqfNMUyTI3-41" target="UZiSnXxRIDqqfNMUyTI3-38">
          <mxGeometry width="50" height="50" relative="1" as="geometry">
            <mxPoint x="390" y="330" as="sourcePoint" />
            <mxPoint x="440" y="280" as="targetPoint" />
          </mxGeometry>
        </mxCell>
        <mxCell id="UZiSnXxRIDqqfNMUyTI3-46" value="" style="endArrow=none;html=1;rounded=0;entryX=0;entryY=0.5;entryDx=0;entryDy=0;exitX=1;exitY=0.3333333333333333;exitDx=0;exitDy=0;exitPerimeter=0;" edge="1" parent="1" source="UZiSnXxRIDqqfNMUyTI3-12" target="UZiSnXxRIDqqfNMUyTI3-44">
          <mxGeometry width="50" height="50" relative="1" as="geometry">
            <mxPoint x="390" y="330" as="sourcePoint" />
            <mxPoint x="440" y="280" as="targetPoint" />
          </mxGeometry>
        </mxCell>
        <mxCell id="UZiSnXxRIDqqfNMUyTI3-47" value="" style="endArrow=none;html=1;rounded=0;entryX=0.5;entryY=0.5;entryDx=0;entryDy=0;entryPerimeter=0;exitX=1;exitY=0.5;exitDx=0;exitDy=0;" edge="1" parent="1" source="UZiSnXxRIDqqfNMUyTI3-37" target="UZiSnXxRIDqqfNMUyTI3-41">
          <mxGeometry width="50" height="50" relative="1" as="geometry">
            <mxPoint x="390" y="329" as="sourcePoint" />
            <mxPoint x="440" y="280" as="targetPoint" />
          </mxGeometry>
        </mxCell>
      </root>
    </mxGraphModel>
  </diagram>
  <diagram id="BZPio_Jj3uGKRLuExNS9" name="(d) 小題">
    <mxGraphModel dx="1422" dy="689" grid="1" gridSize="10" guides="1" tooltips="1" connect="1" arrows="1" fold="1" page="1" pageScale="1" pageWidth="827" pageHeight="1169" math="0" shadow="0">
      <root>
        <mxCell id="Udvxj7O8KsXDByOM07qp-0" />
        <mxCell id="Udvxj7O8KsXDByOM07qp-1" parent="Udvxj7O8KsXDByOM07qp-0" />
      </root>
    </mxGraphModel>
  </diagram>
  <diagram id="FHXIc3Kpj9RXKwcUpcDl" name="(e) 小題">
    <mxGraphModel dx="1422" dy="689" grid="1" gridSize="10" guides="1" tooltips="1" connect="1" arrows="1" fold="1" page="1" pageScale="1" pageWidth="827" pageHeight="1169" math="0" shadow="0">
      <root>
        <mxCell id="0" />
        <mxCell id="1" parent="0" />
      </root>
    </mxGraphModel>
  </diagram>
</mxfile>
